<svg width="85" height="100" viewBox="0 0 85 100" fill="none" xmlns="http://www.w3.org/2000/svg">
<g clip-path="url(#clip0_3110_16466)">
<path fill-rule="evenodd" clip-rule="evenodd" d="M60.497 0H17.2665C7.77044 0 0 7.77044 0 17.2665V76.2745C0 85.7706 7.77044 93.5411 17.2665 93.5411H42.4317C49.078 97.3573 54.9551 99.7436 58.6924 100C63.8004 97.308 81.984 81.1951 84.6563 74.9137H77.7635V19.9389L77.7438 16.3692C77.2705 7.28725 69.6973 0 60.497 0V0Z" fill="url(#paint0_radial_3110_16466)"/>
<path fill-rule="evenodd" clip-rule="evenodd" d="M17.6416 74.9138C31.9499 67.883 50.4786 62.3312 58.6928 62.0354C69.3328 64.9247 78.6218 70.8117 84.5778 74.5391C84.6961 74.618 84.6271 74.7856 84.6567 74.9138H51.2576L42.935 72.4091L17.6416 74.9138Z" fill="white"/>
<path fill-rule="evenodd" clip-rule="evenodd" d="M38.9111 31.8115C44.9263 34.9966 52.1248 41.3569 53.3772 48.1807C52.9926 55.4482 50.0047 63.7512 45.9617 73.3064L51.2571 74.9039L57.6075 74.046C59.274 68.159 61.5322 57.4796 60.5658 47.451C57.4103 41.2287 46.8196 33.4879 38.9111 31.8115Z" fill="white"/>
<path fill-rule="evenodd" clip-rule="evenodd" d="M41.3273 33.1723C32.975 28.8631 23.9523 27.5121 14.1998 28.4095C11.5176 33.2906 8.64806 41.8204 8.2832 47.4017C10.7879 45.0942 15.4127 39.7003 18.4104 37.452C26.1907 34.2274 32.5609 34.5528 41.3273 33.1822V33.1723Z" fill="white"/>
<path fill-rule="evenodd" clip-rule="evenodd" d="M43.9105 32.344C36.8205 32.7384 30.2728 34.7698 24.307 39.4833C23.2223 43.9799 24.8888 50.7347 27.285 55.2609C28.3302 51.5137 29.5135 45.8634 31.4167 42.6487C36.2486 37.6591 37.8756 36.2785 43.9105 32.3539V32.344Z" fill="white"/>
<path fill-rule="evenodd" clip-rule="evenodd" d="M37.748 35.115C44.9761 29.7605 52.1549 24.2778 60.2409 20.6982C64.2247 23.6861 66.9562 27.9658 69.3721 32.5807C66.5026 31.7228 63.564 30.9142 60.3395 30.3127C52.9438 31.0227 45.3508 33.0343 37.7579 35.115H37.748Z" fill="white"/>
<path fill-rule="evenodd" clip-rule="evenodd" d="M42.6094 32.3931C36.4266 25.027 30.1156 17.7693 22.3353 11.7542C15.8467 13.4009 10.4528 16.9312 5.33496 20.9446C9.45684 21.1418 13.6477 21.4278 18.1345 22.049C25.6387 24.9777 32.9457 28.8432 40.2033 32.9454L42.5995 32.3931H42.6094Z" fill="white"/>
<path fill-rule="evenodd" clip-rule="evenodd" d="M40.8241 33.8231C39.3647 27.4726 38.5462 25.0764 39.7098 18.0159C43.171 14.7125 50.8527 10.4131 56.0495 8.58887C54.2548 10.4329 47.7958 18.7555 46.011 20.9446C44.0585 26.2696 44.2656 27.1571 42.609 32.4031C42.4906 32.7679 40.9425 33.4286 40.8241 33.8329V33.8231Z" fill="white"/>
<path opacity="0.3" fill-rule="evenodd" clip-rule="evenodd" d="M17.6416 74.9136C31.9499 88.6105 50.4786 99.4378 58.6928 99.9999L56.4149 92.2985L57.2925 85.5536L53.2693 81.7078L51.2576 74.9136L42.935 72.4089L17.6416 74.9136Z" fill="black"/>
<path fill-rule="evenodd" clip-rule="evenodd" d="M25.7375 3.59937C32.3838 3.59937 37.7777 8.99331 37.7777 15.6396C37.7777 22.2859 32.3838 27.6798 25.7375 27.6798C19.0912 27.6798 13.6973 22.2859 13.6973 15.6396C13.6973 8.99331 19.0912 3.59937 25.7375 3.59937Z" fill="url(#paint1_linear_3110_16466)"/>
<path fill-rule="evenodd" clip-rule="evenodd" d="M61.0293 74.9138L71.7284 76.9452L82.0331 74.9138L72.7047 73.3755L61.0293 74.9138Z" fill="white"/>
<path fill-rule="evenodd" clip-rule="evenodd" d="M0.0488281 51.1094C15.0868 44.7491 30.6967 39.1382 41.8692 36.0123C52.0358 33.1723 66.1666 29.7407 77.8124 23.6466V19.9192L77.7828 16.3693C77.5658 12.4446 76.0275 8.8552 73.5919 6.05469C52.5486 21.1222 25.9338 36.4166 12.5131 41.3372C8.90397 42.6586 4.61445 44.4927 0.0488281 46.5734V51.1094ZM0.0488281 61.2465C37.8755 40.2131 57.1734 47.8356 77.8124 31.4368V42.2543C39.0391 57.7261 28.5864 47.2834 0.0488281 67.025V61.2465Z" fill="url(#paint2_linear_3110_16466)"/>
</g>
<defs>
<radialGradient id="paint0_radial_3110_16466" cx="0" cy="0" r="1" gradientUnits="userSpaceOnUse" gradientTransform="translate(8.45084 -13.5391) scale(129.484 129.484)">
<stop stop-color="#FFE500"/>
<stop offset="0.56" stop-color="#CF68FB"/>
<stop offset="1" stop-color="#4FFFBC"/>
</radialGradient>
<linearGradient id="paint1_linear_3110_16466" x1="17.8487" y1="17.6019" x2="43.4971" y2="11.212" gradientUnits="userSpaceOnUse">
<stop stop-color="white" stop-opacity="0"/>
<stop offset="1" stop-color="white" stop-opacity="0.41"/>
</linearGradient>
<linearGradient id="paint2_linear_3110_16466" x1="6.98108" y1="46.2282" x2="90.109" y2="19.8206" gradientUnits="userSpaceOnUse">
<stop stop-color="white" stop-opacity="0"/>
<stop offset="1" stop-color="white" stop-opacity="0.41"/>
</linearGradient>
<clipPath id="clip0_3110_16466">
<rect width="84.6465" height="100" fill="white"/>
</clipPath>
</defs>
</svg>
